<svg width="121" height="121" xmlns="http://www.w3.org/2000/svg">

 <g>
  <title>background</title>
  <rect fill="none" id="canvas_background" height="123" width="123" y="-1" x="-1"/>
 </g>
 <g>
  <title>Layer 1</title>
  <path transform="rotate(36 60.19061660766597,62.210300445556655) " fill="#008489" id="svg_2" d="m96.190001,28.495284c-14,3.4 -27.9,1.2 -41.7,-2c-3.1,-0.7 -5.5,4 -2.3,5.4c6.6,3 13.1,5.2 19.8,6.4c-11.1,5.2 -21,12.7 -25.5,23.9c-18.7,0.7 -29.9,15 -28,33.7c0.3,2.7 4.4,2.9 4.3,0c-0.1,-10 6.6,-21.6 16.4,-24.3c1.5,-0.4 3.2,-0.7 5,-0.9c-1,8 0.9,15.8 6.7,21.9c5.7,6 13.5,5.5 19.9,0.3c6.7,-5.6 5.9,-13.8 1.3,-20.6c-3.7,-5.5 -9,-8.1 -14.8,-9.3c1.9,-2.8 4.2,-5.3 7.1,-7.3c6.2,-4.4 13.4,-7.6 20.7,-10.2c-3.4,7.2 -6,14.9 -5.8,21.8c0.2,6.5 9.6,6.4 10,0c0.7,-11 6.3,-22.9 12.1,-32.1c2.3,-3.4 -1.4,-7.6 -5.2,-6.7zm-28.7,51.4c1.7,5.4 -3.7,12.2 -9.8,8.9c-5.7,-3.1 -5.4,-12.5 -4,-18c1.8,0.2 3.6,0.6 5.1,1.1c3.6,1.3 7.5,4.2 8.7,8z" class="st0"/>
 </g>
</svg>